<svg width="24" height="24" viewBox="0 0 24 24" fill="none" xmlns="http://www.w3.org/2000/svg">
<path d="M9.04688 14.8281C10.4219 14.2656 11.7344 13.9844 12.9844 13.9844C14.2344 13.9844 15.5469 14.2656 16.9219 14.8281C18.2969 15.3594 18.9844 16.0781 18.9844 16.9844V19H6.98438V16.9844C6.98438 16.0781 7.67188 15.3594 9.04688 14.8281ZM19.6406 14.1719C20.7969 14.3594 21.8125 14.7031 22.6875 15.2031C23.5625 15.6719 24 16.2656 24 16.9844V19H21V16.9844C21 15.9219 20.5469 14.9844 19.6406 14.1719ZM15.0938 11.125C14.5 11.7188 13.7969 12.0156 12.9844 12.0156C12.1719 12.0156 11.4688 11.7188 10.875 11.125C10.2812 10.5312 9.98438 9.82812 9.98438 9.01562C9.98438 8.20312 10.2812 7.5 10.875 6.90625C11.4688 6.3125 12.1719 6.01562 12.9844 6.01562C13.7969 6.01562 14.5 6.3125 15.0938 6.90625C15.6875 7.5 15.9844 8.20312 15.9844 9.01562C15.9844 9.82812 15.6875 10.5312 15.0938 11.125ZM18 12.0156C17.6875 12.0156 17.3906 11.9688 17.1094 11.875C17.7031 11.0312 18 10.0781 18 9.01562C18 7.95312 17.7031 7 17.1094 6.15625C17.3906 6.0625 17.6875 6.01562 18 6.01562C18.8125 6.01562 19.5156 6.3125 20.1094 6.90625C20.7031 7.5 21 8.20312 21 9.01562C21 9.82812 20.7031 10.5312 20.1094 11.125C19.5156 11.7188 18.8125 12.0156 18 12.0156ZM8.01562 10.9844V13H5.01562V16H3V13H0V10.9844H3V7.98438H5.01562V10.9844H8.01562Z" fill="#9E9E9E"/>
</svg>
