<svg width="156" height="24" viewBox="0 0 156 24" fill="none" xmlns="http://www.w3.org/2000/svg">
<path d="M10.9567 4.21827C9.84999 4.21827 8.85919 4.41117 7.98434 4.79695C7.12003 5.18274 6.38747 5.74112 5.78667 6.47208C5.18587 7.19289 4.72736 8.07107 4.41115 9.1066C4.09494 10.132 3.93683 11.2893 3.93683 12.5787C3.93683 14.3046 4.1898 15.7919 4.69574 17.0406C5.20168 18.2792 5.97113 19.2335 7.00408 19.9036C8.03704 20.5635 9.34405 20.8934 10.9251 20.8934C11.9054 20.8934 12.8593 20.802 13.7868 20.6193C14.7144 20.4365 15.6735 20.1878 16.6643 19.8731V22.9797C15.7262 23.335 14.7776 23.5939 13.8184 23.7563C12.8593 23.9188 11.7525 24 10.4982 24C8.13717 24 6.17666 23.5279 4.61669 22.5838C3.06725 21.6396 1.90781 20.3096 1.13836 18.5939C0.379454 16.8782 0 14.868 0 12.5635C0 10.8782 0.242429 9.33502 0.727286 7.93401C1.21214 6.53299 1.91835 5.32487 2.8459 4.30964C3.77346 3.28426 4.91709 2.49746 6.2768 1.94924C7.64705 1.39086 9.21229 1.11168 10.9725 1.11168C12.132 1.11168 13.2703 1.23858 14.3876 1.49239C15.5154 1.73604 16.5589 2.08629 17.5181 2.54315L16.19 5.55838C15.389 5.19289 14.551 4.87817 13.6761 4.61421C12.8013 4.35025 11.8948 4.21827 10.9567 4.21827Z" fill="#FF9B00"/>
<path d="M24.3173 0V5.95431C24.3173 6.5736 24.2962 7.17766 24.254 7.7665C24.2224 8.35533 24.1855 8.81218 24.1434 9.13706H24.3489C24.7178 8.54822 25.1711 8.06599 25.7086 7.69036C26.2462 7.30457 26.847 7.01523 27.511 6.82233C28.1856 6.62944 28.9024 6.53299 29.6613 6.53299C30.9999 6.53299 32.1383 6.75127 33.0763 7.18782C34.0144 7.61421 34.7312 8.27919 35.2266 9.18274C35.7325 10.0863 35.9855 11.2589 35.9855 12.7005V23.6954H32.27V13.3706C32.27 12.0609 31.9907 11.0812 31.432 10.4315C30.8734 9.77157 30.0091 9.44162 28.8391 9.44162C27.7113 9.44162 26.8154 9.67005 26.1513 10.1269C25.4978 10.5736 25.0288 11.2386 24.7442 12.1218C24.4596 12.9949 24.3173 14.0609 24.3173 15.3198V23.6954H20.6018V0H24.3173Z" fill="#FF9B00"/>
<path d="M44.2551 6.83756V23.6954H40.5396V6.83756H44.2551ZM42.421 0.380711C42.9902 0.380711 43.4803 0.527919 43.8914 0.822335C44.313 1.11675 44.5238 1.62437 44.5238 2.34518C44.5238 3.05584 44.313 3.56345 43.8914 3.86802C43.4803 4.16244 42.9902 4.30964 42.421 4.30964C41.8308 4.30964 41.3301 4.16244 40.919 3.86802C40.5185 3.56345 40.3182 3.05584 40.3182 2.34518C40.3182 1.62437 40.5185 1.11675 40.919 0.822335C41.3301 0.527919 41.8308 0.380711 42.421 0.380711Z" fill="#FF9B00"/>
<path d="M58.0583 6.51777C60.0294 6.51777 61.563 7.01015 62.6592 7.99492C63.7659 8.96954 64.3193 10.5381 64.3193 12.7005V23.6954H60.6038V13.3706C60.6038 12.0609 60.3245 11.0812 59.7659 10.4315C59.2072 9.77157 58.3429 9.44162 57.1729 9.44162C55.4759 9.44162 54.2954 9.94416 53.6314 10.9492C52.9779 11.9543 52.6511 13.4112 52.6511 15.3198V23.6954H48.9356V6.83756H51.829L52.3507 9.12183H52.5562C52.9357 8.53299 53.4047 8.05076 53.9634 7.67513C54.5326 7.28934 55.165 7 55.8606 6.80711C56.5669 6.61421 57.2994 6.51777 58.0583 6.51777Z" fill="#FF9B00"/>
<path d="M75.7352 6.51777C77.9486 6.51777 79.6193 6.98985 80.7471 7.93401C81.8855 8.87817 82.4547 10.3503 82.4547 12.3503V23.6954H79.8143L79.1028 21.3046H78.9763C78.4809 21.9137 77.9697 22.4162 77.4427 22.8122C76.9157 23.2081 76.3044 23.5025 75.6087 23.6954C74.9236 23.8985 74.0856 24 73.0948 24C72.0513 24 71.1185 23.8173 70.2963 23.4518C69.4742 23.0761 68.826 22.5076 68.3516 21.7462C67.8773 20.9848 67.6402 20.0203 67.6402 18.8528C67.6402 17.1168 68.3095 15.8122 69.6481 14.9391C70.9973 14.066 73.0316 13.5838 75.751 13.4924L78.7866 13.3858V12.5025C78.7866 11.335 78.502 10.5025 77.9328 10.0051C77.3742 9.50761 76.5837 9.25888 75.5613 9.25888C74.6864 9.25888 73.8379 9.38071 73.0158 9.62436C72.1936 9.86802 71.3925 10.1675 70.6125 10.5228L69.4109 7.99492C70.2647 7.55838 71.2344 7.20305 72.3201 6.92893C73.4163 6.65482 74.5546 6.51777 75.7352 6.51777ZM78.7708 15.6396L76.5099 15.7157C74.6548 15.7766 73.353 16.0812 72.6047 16.6294C71.8563 17.1777 71.4821 17.9289 71.4821 18.8832C71.4821 19.7157 71.7404 20.3249 72.2568 20.7107C72.7733 21.0863 73.4532 21.2741 74.2964 21.2741C75.5823 21.2741 76.6469 20.9239 77.4901 20.2234C78.3439 19.5127 78.7708 18.4721 78.7708 17.1015V15.6396Z" fill="#FF9B00"/>
<path d="M106.204 23.5423H103.105L90.5044 4.84177H90.3779C90.4095 5.33923 90.4464 5.90776 90.4886 6.54736C90.5307 7.1768 90.5624 7.85192 90.5835 8.57274C90.6151 9.2834 90.6309 10.0093 90.6309 10.7504V23.5423H88.1328V1.27832H91.2159L103.769 19.9179H103.88C103.859 19.5626 103.833 19.06 103.801 18.4103C103.769 17.7504 103.738 17.0448 103.706 16.2935C103.685 15.5321 103.675 14.8265 103.675 14.1768V1.27832H106.204V23.5423Z" fill="#F03C21"/>
<path d="M117.818 6.54736C119.294 6.54736 120.559 6.86208 121.613 7.49152C122.667 8.12096 123.473 9.00421 124.032 10.1413C124.59 11.2682 124.87 12.588 124.87 14.1007V15.6692H112.901C112.933 17.6286 113.439 19.121 114.419 20.1463C115.399 21.1717 116.78 21.6844 118.561 21.6844C119.657 21.6844 120.627 21.588 121.47 21.3951C122.314 21.2022 123.188 20.9179 124.095 20.5423V22.7656C123.22 23.1413 122.35 23.4154 121.486 23.588C120.632 23.7606 119.621 23.8468 118.451 23.8468C116.785 23.8468 115.331 23.522 114.087 22.8722C112.854 22.2123 111.894 21.2479 111.209 19.9788C110.524 18.7098 110.182 17.1565 110.182 15.3189C110.182 13.522 110.493 11.9687 111.114 10.659C111.747 9.33923 112.632 8.32401 113.771 7.61335C114.92 6.90269 116.269 6.54736 117.818 6.54736ZM117.786 8.61842C116.385 8.61842 115.267 9.06005 114.435 9.94329C113.602 10.8265 113.107 12.06 112.948 13.6438H122.119C122.108 12.6489 121.945 11.7758 121.628 11.0245C121.323 10.2631 120.854 9.67426 120.221 9.25802C119.589 8.83162 118.777 8.61842 117.786 8.61842Z" fill="#F03C21"/>
<path d="M135.163 6.57781C137.229 6.57781 138.762 7.02451 139.764 7.91791C140.765 8.81132 141.266 10.2377 141.266 12.1971V23.5423H139.353L138.847 21.0753H138.72C138.235 21.6844 137.73 22.1971 137.202 22.6133C136.675 23.0194 136.064 23.3291 135.368 23.5423C134.683 23.7453 133.84 23.8468 132.839 23.8468C131.785 23.8468 130.847 23.6692 130.024 23.3139C129.213 22.9585 128.57 22.4205 128.096 21.6996C127.632 20.9788 127.4 20.0651 127.4 18.9585C127.4 17.2935 128.085 16.0144 129.455 15.121C130.826 14.2276 132.913 13.7402 135.716 13.659L138.705 13.5372V12.5169C138.705 11.0753 138.383 10.0651 137.74 9.48644C137.097 8.90776 136.191 8.61842 135.021 8.61842C134.114 8.61842 133.25 8.74533 132.428 8.99913C131.606 9.25294 130.826 9.55243 130.088 9.89761L129.281 7.97883C130.061 7.59304 130.957 7.26309 131.969 6.98898C132.981 6.71487 134.046 6.57781 135.163 6.57781ZM138.673 15.3189L136.033 15.4255C133.872 15.5067 132.349 15.8468 131.463 16.4458C130.578 17.0448 130.135 17.8925 130.135 18.989C130.135 19.9433 130.436 20.6489 131.036 21.1057C131.637 21.5626 132.433 21.791 133.424 21.791C134.963 21.791 136.222 21.3798 137.202 20.5575C138.183 19.7352 138.673 18.5017 138.673 16.857V15.3189Z" fill="#F03C21"/>
<path d="M153.899 6.54736C154.247 6.54736 154.611 6.56766 154.99 6.60827C155.369 6.63873 155.707 6.68441 156.002 6.74533L155.67 9.0905C155.385 9.01944 155.069 8.9636 154.721 8.92299C154.373 8.88238 154.047 8.86208 153.741 8.86208C153.045 8.86208 152.387 8.99913 151.765 9.27324C151.153 9.5372 150.616 9.92299 150.152 10.4306C149.688 10.9281 149.325 11.5321 149.061 12.2428C148.798 12.9433 148.666 13.725 148.666 14.588V23.5423H146.025V6.85192H148.207L148.492 9.92807H148.603C148.961 9.30878 149.393 8.74533 149.899 8.23771C150.405 7.71994 150.99 7.30878 151.654 7.00421C152.329 6.69964 153.077 6.54736 153.899 6.54736Z" fill="#F03C21"/>
</svg>
