<svg width="24" height="24" viewBox="0 0 24 24" fill="none" xmlns="http://www.w3.org/2000/svg">
<path d="M9 12.9844C9.6875 12.9844 10.4844 13.0781 11.3906 13.2656C9.79688 14.1406 9 15.2969 9 16.7344V18.9844H2.01562V16.5C2.01562 15.7812 2.4375 15.1406 3.28125 14.5781C4.15625 14.0156 5.10938 13.6094 6.14062 13.3594C7.17188 13.1094 8.125 12.9844 9 12.9844ZM12.8906 14.7656C14.1406 14.2656 15.3438 14.0156 16.5 14.0156C17.6562 14.0156 18.8594 14.2656 20.1094 14.7656C21.3594 15.2656 21.9844 15.9219 21.9844 16.7344V18.9844H11.0156V16.7344C11.0156 15.9219 11.6406 15.2656 12.8906 14.7656ZM11.1094 10.125C10.5156 10.7188 9.8125 11.0156 9 11.0156C8.1875 11.0156 7.48438 10.7188 6.89062 10.125C6.29688 9.53125 6 8.82812 6 8.01562C6 7.20312 6.29688 6.5 6.89062 5.90625C7.48438 5.3125 8.1875 5.01562 9 5.01562C9.8125 5.01562 10.5156 5.3125 11.1094 5.90625C11.7031 6.5 12 7.20312 12 8.01562C12 8.82812 11.7031 9.53125 11.1094 10.125ZM18.2344 11.2969C17.7656 11.7656 17.1875 12 16.5 12C15.8125 12 15.2188 11.7656 14.7188 11.2969C14.25 10.7969 14.0156 10.2031 14.0156 9.51562C14.0156 8.82812 14.25 8.23438 14.7188 7.73438C15.2188 7.23438 15.8125 6.98438 16.5 6.98438C17.1875 6.98438 17.7656 7.23438 18.2344 7.73438C18.7344 8.23438 18.9844 8.82812 18.9844 9.51562C18.9844 10.2031 18.7344 10.7969 18.2344 11.2969Z" fill="#9E9E9E"/>
</svg>
