<svg width="12" height="23" viewBox="0 0 12 23" fill="none" xmlns="http://www.w3.org/2000/svg">
<path d="M9.51562 5.01562H11.0156V16.5C11.0156 18.0312 10.4844 19.3438 9.42188 20.4375C8.35938 21.5 7.0625 22.0312 5.53125 22.0312C4 22.0312 2.6875 21.5 1.59375 20.4375C0.53125 19.3438 0 18.0312 0 16.5V4.03125C0 2.9375 0.390625 2 1.17188 1.21875C1.98438 0.40625 2.9375 0 4.03125 0C5.125 0 6.0625 0.40625 6.84375 1.21875C7.625 2 8.01562 2.9375 8.01562 4.03125V14.5312C8.01562 15.2188 7.76562 15.8125 7.26562 16.3125C6.79688 16.7812 6.21875 17.0156 5.53125 17.0156C4.84375 17.0156 4.25 16.7812 3.75 16.3125C3.25 15.8125 3 15.2188 3 14.5312V5.01562H4.5V14.5312C4.5 14.8125 4.59375 15.0469 4.78125 15.2344C5 15.4219 5.25 15.5156 5.53125 15.5156C5.8125 15.5156 6.04688 15.4219 6.23438 15.2344C6.42188 15.0469 6.51562 14.8125 6.51562 14.5312V4.03125C6.51562 3.34375 6.26562 2.75 5.76562 2.25C5.29688 1.75 4.71875 1.5 4.03125 1.5C3.34375 1.5 2.75 1.75 2.25 2.25C1.75 2.75 1.5 3.34375 1.5 4.03125V16.5C1.5 17.5938 1.89062 18.5469 2.67188 19.3594C3.48438 20.1406 4.4375 20.5312 5.53125 20.5312C6.625 20.5312 7.5625 20.1406 8.34375 19.3594C9.125 18.5469 9.51562 17.5938 9.51562 16.5V5.01562Z" fill="#E0E0E0"/>
</svg>
