<svg width="173" height="173" viewBox="0 0 173 173" fill="none" xmlns="http://www.w3.org/2000/svg">
<path d="M108.465 81.0938C112.97 76.5885 115.223 71.1823 115.223 64.875C115.223 56.9909 112.407 50.2331 106.775 44.6016C101.144 38.9701 94.3861 36.1543 86.502 36.1543C78.6178 36.1543 71.86 38.9701 66.2285 44.6016C60.597 50.2331 57.7813 56.9909 57.7813 64.875H71.9727C71.9727 61.0456 73.4369 57.6667 76.3652 54.7383C79.2936 51.8099 82.6725 50.3457 86.502 50.3457C90.3314 50.3457 93.7103 51.8099 96.6387 54.7383C99.5671 57.6667 101.031 61.0456 101.031 64.875C101.031 68.7044 99.5671 72.0833 96.6387 75.0117L87.8535 84.1348C82.222 90.2168 79.4063 96.9746 79.4063 104.408V108.125H93.5977C93.5977 100.691 96.4134 93.9336 102.045 87.8516L108.465 81.0938ZM93.5977 136.846V122.654H79.4063V136.846H93.5977ZM35.4805 35.8164C49.6719 21.625 66.679 14.5293 86.502 14.5293C106.325 14.5293 123.219 21.625 137.186 35.8164C151.377 49.7826 158.473 66.6771 158.473 86.5C158.473 106.323 151.377 123.33 137.186 137.521C123.219 151.488 106.325 158.471 86.502 158.471C66.679 158.471 49.6719 151.488 35.4805 137.521C21.5143 123.33 14.5312 106.323 14.5312 86.5C14.5312 66.6771 21.5143 49.7826 35.4805 35.8164Z" fill="#FFC300"/>
</svg>
