<svg width="20" height="20" viewBox="0 0 20 20" fill="none" xmlns="http://www.w3.org/2000/svg">
<path d="M13.0469 9.25C13.6719 8.625 13.9844 7.875 13.9844 7C13.9844 5.90625 13.5938 4.96875 12.8125 4.1875C12.0312 3.40625 11.0938 3.01562 10 3.01562C8.90625 3.01562 7.96875 3.40625 7.1875 4.1875C6.40625 4.96875 6.01562 5.90625 6.01562 7H7.98438C7.98438 6.46875 8.1875 6 8.59375 5.59375C9 5.1875 9.46875 4.98438 10 4.98438C10.5312 4.98438 11 5.1875 11.4062 5.59375C11.8125 6 12.0156 6.46875 12.0156 7C12.0156 7.53125 11.8125 8 11.4062 8.40625L10.1875 9.67188C9.40625 10.5156 9.01562 11.4531 9.01562 12.4844V13H10.9844C10.9844 11.9688 11.375 11.0312 12.1562 10.1875L13.0469 9.25ZM10.9844 16.9844V15.0156H9.01562V16.9844H10.9844ZM2.92188 2.96875C4.89062 1 7.25 0.015625 10 0.015625C12.75 0.015625 15.0938 1 17.0312 2.96875C19 4.90625 19.9844 7.25 19.9844 10C19.9844 12.75 19 15.1094 17.0312 17.0781C15.0938 19.0156 12.75 19.9844 10 19.9844C7.25 19.9844 4.89062 19.0156 2.92188 17.0781C0.984375 15.1094 0.015625 12.75 0.015625 10C0.015625 7.25 0.984375 4.90625 2.92188 2.96875Z" fill="#FFC300"/>
</svg>
