<svg width="14" height="18" viewBox="0 0 14 18" fill="none" xmlns="http://www.w3.org/2000/svg">
<path d="M0 1.64681C0 1.21277 0.157986 0.829788 0.473958 0.497873C0.765625 0.165958 1.11806 0 1.53125 0H12.4323C12.8455 0 13.2101 0.165958 13.526 0.497873C13.842 0.829788 14 1.21277 14 1.64681L14 16.3532C14 16.7872 13.842 17.1702 13.526 17.5021C13.2101 17.834 12.8455 18 12.4323 18H1.53125C1.11806 18 0.765625 17.834 0.473958 17.5021C0.157986 17.1702 0 16.7872 0 16.3532L0 11.4511H1.53125L1.53125 16.3532H12.4323L12.4323 1.64681H1.53125L1.53125 6.54894H0L0 1.64681ZM10.099 9L7 12.2553L7 9.80426H0L0 8.19575H7V5.74468L10.099 9Z" fill="#757575"/>
</svg>
