<svg width="131" height="20" viewBox="0 0 131 20" fill="none" xmlns="http://www.w3.org/2000/svg">
<path d="M9.1306 3.51523C8.20832 3.51523 7.38266 3.67597 6.65362 3.99746C5.93336 4.31895 5.32289 4.78426 4.82222 5.3934C4.32156 5.99408 3.93947 6.72589 3.67596 7.58883C3.41245 8.44332 3.28069 9.40778 3.28069 10.4822C3.28069 11.9205 3.4915 13.1599 3.91312 14.2005C4.33473 15.2327 4.97594 16.0279 5.83674 16.5863C6.69753 17.1362 7.78671 17.4112 9.10425 17.4112C9.92113 17.4112 10.7161 17.335 11.489 17.1827C12.262 17.0305 13.0613 16.8232 13.887 16.5609V19.1497C13.1052 19.4459 12.3147 19.6616 11.5154 19.797C10.7161 19.9323 9.79377 20 8.74852 20C6.78098 20 5.14722 19.6066 3.84724 18.8198C2.55604 18.033 1.58984 16.9247 0.948634 15.4949C0.316211 14.0651 0 12.39 0 10.4695C0 9.06514 0.202024 7.77919 0.606072 6.61167C1.01012 5.44416 1.59862 4.43739 2.37159 3.59137C3.14455 2.73689 4.09757 2.08122 5.23066 1.62437C6.37254 1.15905 7.67691 0.926396 9.14378 0.926396C10.11 0.926396 11.0586 1.03215 11.9897 1.24365C12.9295 1.4467 13.7991 1.73858 14.5984 2.11929L13.4917 4.63198C12.8241 4.32741 12.1258 4.06514 11.3968 3.84518C10.6677 3.62521 9.91235 3.51523 9.1306 3.51523Z" fill="#FFC300"/>
<path d="M20.2644 0V4.96193C20.2644 5.478 20.2468 5.98139 20.2117 6.47208C20.1854 6.96277 20.1546 7.34349 20.1195 7.61421H20.2908C20.5982 7.12352 20.9759 6.72166 21.4239 6.40863C21.8718 6.08714 22.3725 5.84602 22.9259 5.68528C23.488 5.52453 24.0853 5.44416 24.7177 5.44416C25.8332 5.44416 26.7819 5.62606 27.5636 5.98985C28.3454 6.34518 28.9427 6.89932 29.3555 7.65228C29.7771 8.40524 29.9879 9.3824 29.9879 10.5838V19.7462H26.8917V11.1421C26.8917 10.0508 26.6589 9.23435 26.1934 8.69289C25.7278 8.14298 25.0076 7.86802 24.0326 7.86802C23.0927 7.86802 22.3461 8.05838 21.7928 8.43909C21.2482 8.81134 20.8573 9.36548 20.6201 10.1015C20.383 10.8291 20.2644 11.7174 20.2644 12.7665V19.7462H17.1682V0H20.2644Z" fill="#FFC300"/>
<path d="M36.8792 5.69797V19.7462H33.783V5.69797H36.8792ZM35.3509 0.317259C35.8252 0.317259 36.2336 0.439932 36.5762 0.685279C36.9275 0.930626 37.1032 1.35364 37.1032 1.95431C37.1032 2.54653 36.9275 2.96954 36.5762 3.22335C36.2336 3.4687 35.8252 3.59137 35.3509 3.59137C34.859 3.59137 34.4417 3.4687 34.0992 3.22335C33.7654 2.96954 33.5985 2.54653 33.5985 1.95431C33.5985 1.35364 33.7654 0.930626 34.0992 0.685279C34.4417 0.439932 34.859 0.317259 35.3509 0.317259Z" fill="#FFC300"/>
<path d="M48.3819 5.43147C50.0245 5.43147 51.3025 5.84179 52.216 6.66244C53.1383 7.47462 53.5994 8.78173 53.5994 10.5838V19.7462H50.5032V11.1421C50.5032 10.0508 50.2704 9.23435 49.8049 8.69289C49.3393 8.14298 48.6191 7.86802 47.6441 7.86802C46.2299 7.86802 45.2462 8.2868 44.6928 9.12436C44.1482 9.96193 43.8759 11.176 43.8759 12.7665V19.7462H40.7797V5.69797H43.1908L43.6256 7.60152H43.7969C44.1131 7.11083 44.5039 6.70897 44.9695 6.39594C45.4438 6.07445 45.9708 5.83333 46.5505 5.67259C47.139 5.51184 47.7495 5.43147 48.3819 5.43147Z" fill="#FFC300"/>
<path d="M63.1126 5.43147C64.9572 5.43147 66.3494 5.82487 67.2893 6.61167C68.2379 7.39848 68.7122 8.62521 68.7122 10.2919V19.7462H66.5119L65.919 17.7538H65.8136C65.4008 18.2614 64.9748 18.6802 64.5356 19.0102C64.0964 19.3401 63.587 19.5854 63.0072 19.7462C62.4363 19.9154 61.738 20 60.9123 20C60.0428 20 59.2654 19.8477 58.5803 19.5431C57.8952 19.2301 57.355 18.7563 56.9597 18.1218C56.5644 17.4873 56.3668 16.6836 56.3668 15.7107C56.3668 14.264 56.9246 13.1768 58.0401 12.4492C59.1644 11.7217 60.8596 11.3198 63.1258 11.2437L65.6555 11.1548V10.4188C65.6555 9.44585 65.4184 8.75212 64.944 8.33756C64.4785 7.92301 63.8197 7.71574 62.9677 7.71574C62.2387 7.71574 61.5316 7.81726 60.8465 8.0203C60.1613 8.22335 59.4938 8.47293 58.8438 8.76904L57.8425 6.66244C58.5539 6.29865 59.362 6.00254 60.2667 5.77411C61.1802 5.54569 62.1289 5.43147 63.1126 5.43147ZM65.6423 13.033L63.7582 13.0964C62.2123 13.1472 61.1275 13.401 60.5039 13.8579C59.8803 14.3147 59.5684 14.9408 59.5684 15.736C59.5684 16.4298 59.7836 16.9374 60.214 17.2589C60.6444 17.5719 61.211 17.7284 61.9137 17.7284C62.9853 17.7284 63.8724 17.4365 64.5751 16.8528C65.2866 16.2606 65.6423 15.3934 65.6423 14.2513V13.033Z" fill="#FFC300"/>
<path d="M88.5049 19.6197H85.9225L75.4216 4.03595H75.3162C75.3426 4.4505 75.3733 4.92427 75.4085 5.45727C75.4436 5.9818 75.4699 6.54441 75.4875 7.14509C75.5139 7.7373 75.527 8.34221 75.527 8.95981V19.6197H73.4453V1.06641H76.0145L86.4759 16.5994H86.5681C86.5505 16.3033 86.5286 15.8845 86.5022 15.3431C86.4759 14.7931 86.4495 14.2052 86.4232 13.5791C86.4056 12.9446 86.3968 12.3566 86.3968 11.8151V1.06641H88.5049V19.6197Z" fill="#F5F5F5"/>
<path d="M98.1831 5.45727C99.4128 5.45727 100.467 5.71954 101.345 6.24407C102.224 6.76861 102.895 7.50465 103.361 8.45219C103.827 9.39128 104.059 10.4911 104.059 11.7517V13.0588H94.0855C94.1118 14.6916 94.5335 15.9353 95.3503 16.7898C96.1672 17.6442 97.3179 18.0715 98.8023 18.0715C99.7158 18.0715 100.524 17.9911 101.227 17.8304C101.929 17.6696 102.658 17.4327 103.414 17.1197V18.9725C102.685 19.2855 101.96 19.514 101.24 19.6578C100.528 19.8016 99.6851 19.8735 98.7101 19.8735C97.3223 19.8735 96.1101 19.6028 95.0736 19.0613C94.046 18.5114 93.2466 17.7077 92.6757 16.6502C92.1048 15.5926 91.8193 14.2982 91.8193 12.7669C91.8193 11.2695 92.0784 9.97504 92.5967 8.88367C93.1237 7.78383 93.8615 6.93781 94.8101 6.34559C95.7676 5.75338 96.8919 5.45727 98.1831 5.45727ZM98.1567 7.18316C96.9885 7.18316 96.0574 7.55118 95.3635 8.28722C94.6696 9.02326 94.2568 10.0512 94.125 11.371H101.767C101.758 10.5419 101.622 9.81429 101.358 9.18823C101.104 8.55372 100.713 8.06302 100.186 7.71615C99.6587 7.36082 98.9824 7.18316 98.1567 7.18316Z" fill="#F5F5F5"/>
<path d="M112.637 5.48265C114.359 5.48265 115.637 5.8549 116.471 6.5994C117.306 7.3439 117.723 8.53257 117.723 10.1654V19.6197H116.129L115.707 17.5639H115.602C115.198 18.0715 114.776 18.4987 114.337 18.8456C113.898 19.184 113.388 19.442 112.808 19.6197C112.237 19.7889 111.535 19.8735 110.7 19.8735C109.822 19.8735 109.04 19.7255 108.355 19.4293C107.679 19.1332 107.143 18.6848 106.748 18.0842C106.361 17.4835 106.168 16.7221 106.168 15.7999C106.168 14.4124 106.739 13.3464 107.881 12.6019C109.023 11.8574 110.762 11.4513 113.098 11.3837L115.588 11.2821V10.4319C115.588 9.23053 115.32 8.38874 114.785 7.90651C114.249 7.42427 113.493 7.18316 112.519 7.18316C111.763 7.18316 111.043 7.28891 110.358 7.50042C109.673 7.71192 109.023 7.9615 108.408 8.24915L107.736 6.65016C108.386 6.32867 109.132 6.05372 109.976 5.82529C110.819 5.59686 111.706 5.48265 112.637 5.48265ZM115.562 12.7669L113.362 12.8557C111.561 12.9234 110.292 13.2068 109.554 13.706C108.816 14.2052 108.447 14.9116 108.447 15.8253C108.447 16.6206 108.698 17.2085 109.198 17.5892C109.699 17.97 110.362 18.1603 111.188 18.1603C112.47 18.1603 113.52 17.8177 114.337 17.1324C115.154 16.4471 115.562 15.4192 115.562 14.0486V12.7669Z" fill="#F5F5F5"/>
<path d="M128.251 5.45727C128.54 5.45727 128.843 5.47419 129.16 5.50803C129.476 5.53341 129.757 5.57148 130.003 5.62224L129.726 7.57656C129.489 7.51734 129.226 7.47081 128.936 7.43696C128.646 7.40312 128.374 7.3862 128.119 7.3862C127.539 7.3862 126.99 7.50042 126.472 7.72884C125.962 7.94881 125.514 8.2703 125.128 8.69331C124.741 9.10786 124.438 9.61125 124.219 10.2035C123.999 10.7872 123.889 11.4387 123.889 12.1578V19.6197H121.689V5.71108H123.507L123.745 8.27453H123.837C124.135 7.75845 124.496 7.28891 124.917 6.8659C125.339 6.43443 125.826 6.09179 126.38 5.83798C126.942 5.58417 127.565 5.45727 128.251 5.45727Z" fill="#F5F5F5"/>
</svg>
