<svg width="19" height="16" viewBox="0 0 19 16" fill="none" xmlns="http://www.w3.org/2000/svg">
<path d="M4.98438 1.01562H19V2.98438H4.98438V1.01562ZM4.98438 8.98438V7.01562H19V8.98438H4.98438ZM4.98438 14.9844V13.0156H19V14.9844H4.98438ZM0.90625 12.9688C1.21875 12.6562 1.57812 12.5 1.98438 12.5C2.39062 12.5 2.73438 12.6562 3.01562 12.9688C3.32812 13.25 3.48438 13.5938 3.48438 14C3.48438 14.4062 3.32812 14.7656 3.01562 15.0781C2.73438 15.3594 2.39062 15.5 1.98438 15.5C1.57812 15.5 1.21875 15.3594 0.90625 15.0781C0.625 14.7656 0.484375 14.4062 0.484375 14C0.484375 13.5938 0.625 13.25 0.90625 12.9688ZM0.90625 0.921875C1.21875 0.640625 1.57812 0.5 1.98438 0.5C2.39062 0.5 2.73438 0.640625 3.01562 0.921875C3.32812 1.20312 3.48438 1.5625 3.48438 2C3.48438 2.4375 3.32812 2.79688 3.01562 3.07812C2.73438 3.35938 2.39062 3.5 1.98438 3.5C1.57812 3.5 1.21875 3.35938 0.90625 3.07812C0.625 2.79688 0.484375 2.4375 0.484375 2C0.484375 1.5625 0.625 1.20312 0.90625 0.921875ZM0.90625 6.92188C1.21875 6.64062 1.57812 6.5 1.98438 6.5C2.39062 6.5 2.73438 6.64062 3.01562 6.92188C3.32812 7.20312 3.48438 7.5625 3.48438 8C3.48438 8.4375 3.32812 8.79688 3.01562 9.07812C2.73438 9.35938 2.39062 9.5 1.98438 9.5C1.57812 9.5 1.21875 9.35938 0.90625 9.07812C0.625 8.79688 0.484375 8.4375 0.484375 8C0.484375 7.5625 0.625 7.20312 0.90625 6.92188Z" fill="#848484"/>
</svg>
