<svg width="18" height="22" viewBox="0 0 18 22" fill="none" xmlns="http://www.w3.org/2000/svg">
<path d="M5.4375 11.5312C6.4375 12.5 7.625 12.9844 9 12.9844C10.375 12.9844 11.5469 12.5 12.5156 11.5312C13.5156 10.5625 14.0156 9.39062 14.0156 8.01562H12C12 8.82812 11.7031 9.53125 11.1094 10.125C10.5156 10.7188 9.8125 11.0156 9 11.0156C8.1875 11.0156 7.48438 10.7188 6.89062 10.125C6.29688 9.53125 6 8.82812 6 8.01562H3.98438C3.98438 9.39062 4.46875 10.5625 5.4375 11.5312ZM11.1094 3.89062C10.5156 3.29688 9.8125 3 9 3C8.1875 3 7.48438 3.29688 6.89062 3.89062C6.29688 4.48438 6 5.1875 6 6H12C12 5.1875 11.7031 4.48438 11.1094 3.89062ZM15.9844 6C16.5156 6 16.9844 6.20312 17.3906 6.60938C17.7969 7.01562 18 7.48438 18 8.01562V20.0156C18 20.5469 17.7969 21.0156 17.3906 21.4219C16.9844 21.7969 16.5156 21.9844 15.9844 21.9844H2.01562C1.48438 21.9844 1.01562 21.7969 0.609375 21.4219C0.203125 21.0156 0 20.5469 0 20.0156V8.01562C0 7.48438 0.203125 7.01562 0.609375 6.60938C1.01562 6.20312 1.48438 6 2.01562 6H3.98438C3.98438 4.625 4.46875 3.45312 5.4375 2.48438C6.4375 1.48438 7.625 0.984375 9 0.984375C10.375 0.984375 11.5469 1.48438 12.5156 2.48438C13.5156 3.45312 14.0156 4.625 14.0156 6H15.9844Z" fill="#757575"/>
</svg>
