<svg width="16" height="12" viewBox="0 0 16 12" fill="none" xmlns="http://www.w3.org/2000/svg">
<path d="M8 0C4.36364 0 1.25818 2.31417 0 5.58081C1.25818 8.84744 4.36364 11.1616 8 11.1616C11.6364 11.1616 14.7418 8.84744 16 5.58081C14.7418 2.31417 11.6364 0 8 0ZM8 9.30134C5.99273 9.30134 4.36364 7.63454 4.36364 5.58081C4.36364 3.52707 5.99273 1.86027 8 1.86027C10.0073 1.86027 11.6364 3.52707 11.6364 5.58081C11.6364 7.63454 10.0073 9.30134 8 9.30134ZM8 3.34848C6.79273 3.34848 5.81818 4.34559 5.81818 5.58081C5.81818 6.81603 6.79273 7.81313 8 7.81313C9.20727 7.81313 10.1818 6.81603 10.1818 5.58081C10.1818 4.34559 9.20727 3.34848 8 3.34848Z" fill="#9E9E9E"/>
</svg>
